<svg xmlns="http://www.w3.org/2000/svg" width="801.834" height="131.102" viewBox="0 0 801.834 131.102">
  <path id="Union_10" data-name="Union 10" d="M588.076,128.6l-.12-7.06h.4c1.726,5.487,4.737,7.988,9.6,7.988,5.218,0,7.868-2.743,7.868-6.132,0-3.267-1.927-5.285-6.945-7.02l-3.051-1.048c-5.58-1.9-7.749-4.963-7.749-8.958,0-4.841,4.537-8.109,10.317-8.109a20.708,20.708,0,0,1,8.752,1.815v6.819h-.4c-1.445-4.72-4.415-7.06-8.31-7.06-4.176,0-6.665,2.138-6.665,5.2,0,2.745,1.084,4.639,5.1,6.173l3.051,1.05c4.978,1.734,9.634,4.034,9.634,9.641,0,5.367-4.255,9.2-11.441,9.2A18.814,18.814,0,0,1,588.076,128.6ZM436.945,114.682c0-10.047,7.828-16.421,17.1-16.421s17.1,6.375,17.1,16.421-7.829,16.42-17.1,16.42S436.945,124.727,436.945,114.682Zm4.7,0c0,10.57,6.3,14.846,12.406,14.846s12.4-4.276,12.4-14.846-6.3-14.848-12.4-14.848S441.641,104.111,441.641,114.682Zm-214.817,0c0-10.047,7.827-16.421,17.1-16.421s17.1,6.375,17.1,16.421-7.827,16.42-17.1,16.42S226.825,124.727,226.825,114.682Zm4.7,0c0,10.57,6.3,14.846,12.4,14.846s12.4-4.276,12.4-14.846-6.3-14.848-12.4-14.848S231.521,104.111,231.521,114.682Zm316.154,15.855V98.786h20.032v1.937H551.85V113.23h13.89v1.937H551.85V128.6h15.857v1.936Zm-27.628,0-1.126-28.161-9.874,28.161h-2.731l-10.637-28.2-1.244,28.2h-2.169l1.365-31.751h5.019l10.037,26.95,9.434-26.95h4.817l1.365,31.751Zm-108.922,0V115.246h-17.1v15.291h-4.174V98.786h4.174v14.4h17.1v-14.4H415.3v31.751Zm-47.227,0-20.876-28.523v28.523h-2.208V98.786h4.858l18.267,24.932V98.786h2.207v31.751Zm-56.193,0-8.471-25.9-7.828,25.9h-3.17L278.079,98.786h4.456l8.31,26.426,8.069-26.426h2.812l8.709,26.3,8.311-26.3h2.248l-10.156,31.751Zm-110.03,0V100.723H186.434V98.786H213.09v1.937H201.849v29.814ZM760.635,58.2,760.4,44.652h.771c3.311,10.524,9.085,15.322,18.4,15.322,10.01,0,15.094-5.262,15.094-11.763,0-6.268-3.7-10.137-13.321-13.464L775.5,32.734c-10.7-3.635-14.862-9.519-14.862-17.179,0-9.287,8.7-15.555,19.79-15.555a39.729,39.729,0,0,1,16.788,3.482V16.56h-.77C793.67,7.507,787.972,3.018,780.5,3.018c-8.008,0-12.783,4.1-12.783,9.983,0,5.262,2.079,8.9,9.78,11.841l5.852,2.011c9.548,3.328,18.482,7.739,18.482,18.5,0,10.292-8.164,17.643-21.947,17.643C772.186,62.993,765.8,61.367,760.635,58.2ZM340.657,31.5c0-19.27,14.708-31.5,32.495-31.5,9.472,0,18.328,2.322,23.257,5.959V17.412h-.77C390.71,4.722,381.469,3.018,373.152,3.018c-11.7,0-23.486,8.2-23.486,28.479,0,21.667,12.86,28.479,24.334,28.479,7.7,0,14.477-2.477,17.557-5.495V36.371H379.546V32.425h20.02V53.784c-4.389,5.03-13.862,9.208-26.414,9.208C355.365,62.993,340.657,50.765,340.657,31.5Zm269.724,0c0-19.27,15.015-31.5,32.8-31.5s32.8,12.227,32.8,31.5-15.016,31.495-32.8,31.495S610.381,50.766,610.381,31.5Zm9.009,0c0,20.274,12.089,28.479,23.794,28.479s23.795-8.2,23.795-28.479S654.89,3.018,643.184,3.018,619.39,11.222,619.39,31.5Zm-88.122,0c0-19.27,15.016-31.5,32.8-31.5s32.8,12.227,32.8,31.5-15.015,31.495-32.8,31.495S531.268,50.766,531.268,31.5Zm9.01,0c0,20.274,12.089,28.479,23.793,28.479s23.8-8.2,23.8-28.479-12.09-28.479-23.8-28.479S540.278,11.222,540.278,31.5Zm-484.937,0c0-19.27,15.016-31.5,32.8-31.5s32.8,12.227,32.8,31.5-15.016,31.495-32.8,31.495S55.342,50.766,55.342,31.5Zm9.01,0c0,20.274,12.089,28.479,23.793,28.479s23.8-8.2,23.8-28.479S99.851,3.018,88.145,3.018,64.352,11.222,64.352,31.5ZM693.644,61.909V1.006h16.248C729.22,1.006,745.7,12.227,745.7,31.5s-16.555,30.412-36.191,30.412Zm8.008-3.482h9.7c11.706,0,25.337-5.883,25.337-26.931S723.06,4.489,711.354,4.489h-9.7Zm-204.6,3.482L480.8,12.227,465.787,61.909H459.7L440.22,1.006h8.547l15.941,50.688L480.187,1.006h5.39l16.71,50.456,15.94-50.456h4.313l-19.482,60.9Zm-178.314,0L278.695,7.2V61.909h-4.236V1.006h9.319l35.036,47.825V1.006h4.236v60.9Zm-73.608,0V1.007h8.007v60.9Zm-53.262,0V1.007h8.008V58.2h30.418v3.714Zm-53.262,0V1.007h8.008V58.2H177.03v3.714Zm-101.487,0L14.17,32.734H8.009V61.909H0V1.007H14.17c13.322,0,25.874,2.941,25.874,15.864,0,9.9-7.24,13.774-16.48,15.244l23.41,29.794ZM8.009,29.253h5.622c10.7,0,17.4-2.245,17.4-12.382S24.334,4.49,13.631,4.49H8.009Z" fill="#bbb085"/>
</svg>
