<svg xmlns="http://www.w3.org/2000/svg" width="377.066" height="59.784" viewBox="0 0 377.066 59.784">
  <path id="Union_2" data-name="Union 2" d="M276.546,58.644l-.056-3.219h.189c.812,2.5,2.228,3.643,4.512,3.643,2.454,0,3.7-1.251,3.7-2.8,0-1.49-.906-2.41-3.266-3.2l-1.435-.478c-2.624-.865-3.644-2.263-3.644-4.085,0-2.207,2.134-3.7,4.852-3.7a10,10,0,0,1,4.116.828v3.109h-.189c-.679-2.152-2.076-3.219-3.908-3.219-1.964,0-3.134.975-3.134,2.373,0,1.252.51,2.115,2.4,2.815l1.435.479c2.341.791,4.531,1.84,4.531,4.4,0,2.447-2,4.195-5.38,4.195A9.065,9.065,0,0,1,276.546,58.644ZM205.475,52.3c0-4.582,3.681-7.488,8.042-7.488s8.042,2.907,8.042,7.488-3.682,7.488-8.042,7.488S205.475,56.878,205.475,52.3Zm2.209,0c0,4.82,2.964,6.77,5.834,6.77s5.833-1.95,5.833-6.77-2.964-6.771-5.833-6.771S207.684,47.476,207.684,52.3Zm-101.019,0c0-4.582,3.681-7.488,8.042-7.488s8.042,2.907,8.042,7.488-3.681,7.488-8.042,7.488S106.665,56.878,106.665,52.3Zm2.209,0c0,4.82,2.964,6.77,5.833,6.77s5.833-1.95,5.833-6.77-2.964-6.771-5.833-6.771S108.874,47.476,108.874,52.3Zm148.673,7.23V45.048h9.42v.883H259.51v5.7h6.532v.883H259.51v6.127h7.457v.883Zm-12.992,0-.529-12.842-4.644,12.842H238.1l-5-12.86-.585,12.86h-1.02l.642-14.479h2.36l4.72,12.29,4.436-12.29h2.265l.642,14.479Zm-51.221,0V52.554h-8.042v6.973h-1.963V45.048h1.963v6.568h8.042V45.048H195.3V59.527Zm-22.209,0L161.308,46.52V59.527H160.27V45.048h2.284l8.59,11.37V45.048h1.038V59.527Zm-26.425,0-3.983-11.812-3.681,11.812h-1.491l-4.776-14.479h2.1L136.771,57.1l3.795-12.051h1.322l4.1,11.995,3.909-11.995h1.057l-4.776,14.479Zm-51.742,0v-13.6H87.672v-.883h12.535v.883H94.92v13.6ZM357.693,26.538l-.109-6.176h.362c1.557,4.8,4.272,6.987,8.654,6.987,4.707,0,7.1-2.4,7.1-5.364,0-2.858-1.738-4.623-6.264-6.14l-2.753-.918c-5.033-1.658-6.989-4.341-6.989-7.834C357.693,2.859,361.785,0,367,0a19.179,19.179,0,0,1,7.895,1.588V7.552h-.362c-1.3-4.129-3.984-6.175-7.5-6.175-3.766,0-6.011,1.87-6.011,4.553,0,2.4.978,4.058,4.6,5.4l2.752.917c4.49,1.518,8.691,3.529,8.691,8.435,0,4.693-3.839,8.045-10.321,8.045A17.388,17.388,0,0,1,357.693,26.538ZM160.2,14.363C160.2,5.576,167.112,0,175.477,0c4.454,0,8.619,1.059,10.937,2.717V7.94h-.362c-2.318-5.787-6.663-6.564-10.574-6.564-5.5,0-11.044,3.74-11.044,12.987,0,9.881,6.047,12.987,11.443,12.987,3.621,0,6.808-1.13,8.256-2.506V16.586h-5.648v-1.8H187.9v9.74c-2.064,2.294-6.519,4.2-12.421,4.2C167.112,28.725,160.2,23.15,160.2,14.363Zm126.839,0C287.035,5.576,294.1,0,302.461,0s15.427,5.576,15.427,14.363-7.061,14.362-15.427,14.362S287.035,23.15,287.035,14.363Zm4.237,0c0,9.245,5.685,12.987,11.189,12.987s11.19-3.741,11.19-12.987-5.685-12.987-11.19-12.987S291.271,5.117,291.271,14.363Zm-41.44,0C249.832,5.576,256.893,0,265.257,0s15.427,5.576,15.427,14.363-7.061,14.362-15.427,14.362S249.832,23.15,249.832,14.363Zm4.237,0c0,9.245,5.685,12.987,11.189,12.987s11.19-3.741,11.19-12.987-5.685-12.987-11.19-12.987S254.069,5.117,254.069,14.363Zm-228.044,0C26.025,5.576,33.086,0,41.45,0S56.877,5.576,56.877,14.363,49.816,28.725,41.45,28.725,26.025,23.15,26.025,14.363Zm4.237,0c0,9.245,5.685,12.987,11.189,12.987s11.19-3.741,11.19-12.987S46.955,1.376,41.45,1.376,30.262,5.117,30.262,14.363ZM326.19,28.231V.459h7.641c9.089,0,16.838,5.117,16.838,13.9s-7.785,13.868-17.019,13.868Zm3.766-1.588h4.562c5.5,0,11.915-2.683,11.915-12.281s-6.41-12.316-11.915-12.316h-4.562Zm-96.215,1.588L226.1,5.576l-7.061,22.656h-2.862L207.016.459h4.019l7.5,23.115L225.81.459h2.535L236.2,23.468,243.7.459h2.028l-9.162,27.773Zm-83.853,0-18.83-24.95v24.95h-1.992V.459h4.382l16.476,21.809V.459h1.992V28.231Zm-34.615,0V.459h3.765V28.231Zm-25.047,0V.459h3.766V26.538h14.3v1.694Zm-25.047,0V.459h3.766V26.538h14.3v1.694Zm-47.725,0L6.663,14.927h-2.9v13.3H0V.459H6.663c6.265,0,12.167,1.341,12.167,7.234,0,4.517-3.4,6.281-7.75,6.951L22.09,28.231ZM3.766,13.34H6.41c5.033,0,8.184-1.024,8.184-5.647S11.443,2.047,6.41,2.047H3.766Z"/>
</svg>
