<svg xmlns="http://www.w3.org/2000/svg" xmlns:xlink="http://www.w3.org/1999/xlink" width="174.458" height="22.541" viewBox="0 0 174.458 22.541">
  <defs>
    <clipPath id="clip-path">
      <path id="Path_90" data-name="Path 90" d="M0-73.96H174.458V-96.5H0Z" transform="translate(0 96.501)" fill="#fff"/>
    </clipPath>
  </defs>
  <g id="Group_111" data-name="Group 111" transform="translate(0 96.501)">
    <g id="Group_37" data-name="Group 37" transform="translate(0 -96.501)" clip-path="url(#clip-path)">
      <g id="Group_30" data-name="Group 30" transform="translate(0 0.41)">
        <path id="Path_83" data-name="Path 83" d="M-.087-70.918c.736-.812,1.434-1.545,2.081-2.32a1.459,1.459,0,0,0,.329-.857c.019-5.067.01-10.135.022-15.2a1.223,1.223,0,0,0-.361-.913c-.678-.721-1.334-1.462-2.1-2.306.33,0,11.853.032,17.418-.017a6.39,6.39,0,0,1,4.839,2.226A6.8,6.8,0,0,1,21.107-80.7a9.439,9.439,0,0,1-3.122,1.647,2.372,2.372,0,0,1-.658.078c-1.477.007-2.954,0-4.45.086.512.114,1.024.229,1.537.341,1.559.338,3.121.66,4.675,1.022a2.352,2.352,0,0,1,.944.459c2.308,1.925,4.6,3.872,6.892,5.814.1.087.276.23.444.382l-.526,0c-2.645,0-5.291.009-7.936-.01a1.267,1.267,0,0,1-.73-.271q-4.463-3.617-8.9-7.262c-.183-.149-.37-.294-.574-.455-.037.07-.076.11-.077.15-.005,1.632-.017,3.263,0,4.9a1.02,1.02,0,0,0,.283.57c.661.764,1.341,1.511,2.081,2.338ZM8.649-90.856v10.23c1.8,0,0,0,5.333.027a2.839,2.839,0,0,0,2.358-1.069,5.963,5.963,0,0,0,.627-.876,6.948,6.948,0,0,0,.673-4.741,4.874,4.874,0,0,0-1.708-3.026,2.18,2.18,0,0,0-1.49-.558c-2.339-.015-5.228.013-5.792.013" transform="translate(0.114 92.532)" fill="#fff"/>
      </g>
      <g id="Group_31" data-name="Group 31" transform="translate(100.414 0.418)">
        <path id="Path_84" data-name="Path 84" d="M-64.5-41.439c0-3.311,0-6.487-.01-9.662a.918.918,0,0,0-.239-.533c-.674-.778-1.367-1.539-2.113-2.373h6.8a8.538,8.538,0,0,1-.9.986,4.356,4.356,0,0,0-1.523,3.874c.1,5.355.038,16.473.038,16.728-.929,0-1.8.014-2.672-.014-.15-.005-14.285-16.671-14.518-16.943-.022.233-.047.37-.047.507,0,4.447-.006,8.895.011,13.342a1.231,1.231,0,0,0,.285.722c.651.773,1.337,1.516,2.073,2.339h-6.843c.706-.782,1.354-1.527,2.035-2.24a1.326,1.326,0,0,0,.389-1c-.012-5.049,0-10.1-.022-15.145a1.46,1.46,0,0,0-.329-.857c-.644-.77-1.337-1.5-2.079-2.317.26-.015,5.875-.024,8.537-.04a.912.912,0,0,1,.775.383C-71.521-49.73-64.678-41.634-64.5-41.439" transform="translate(84.158 54.069)" fill="#fff"/>
      </g>
      <g id="Group_32" data-name="Group 32" transform="translate(28.439 0.476)">
        <path id="Path_85" data-name="Path 85" d="M-69.58,0V6.579c-.163-.205-2.4-3.265-3.439-4.654a.778.778,0,0,0-.524-.3c-2.782-.018-8.447.005-8.534.018v8.28c.151.007,3.879.014,5.579.03a.846.846,0,0,0,.74-.349c.656-.8,1.337-1.587,2.084-2.467v7.216c-.167-.178-1.551-1.8-2.141-2.468a.737.737,0,0,0-.451-.271c-1.922-.018-3.845-.012-5.808-.012v8.3c.146.009,5.832.021,8.511.037a.838.838,0,0,0,.762-.4c1.092-1.495,2.2-2.978,3.382-4.572v6.585H-90.756c.1-.136,1.521-1.724,2.126-2.426a.981.981,0,0,0,.226-.587q.018-7.78,0-15.56a1.056,1.056,0,0,0-.257-.626C-89.336,1.581-90.037.827-90.786,0Z" transform="translate(90.786)" fill="#fff"/>
      </g>
      <g id="Group_33" data-name="Group 33" transform="translate(76.372 0.447)">
        <path id="Path_86" data-name="Path 86" d="M-.014,0H21.207V6.556a3.9,3.9,0,0,1-.273-.3C19.89,4.831,18.855,3.4,17.8,1.981a.84.84,0,0,0-.563-.327c-2.748-.021-8.41,0-8.523.011V9.941c.151.011,3.884.044,5.6.018A1.05,1.05,0,0,0,15,9.643c.7-.774,1.364-1.584,2.107-2.46V14.4a13.591,13.591,0,0,1-1.215-1.457A2.9,2.9,0,0,0,13.015,11.6c-4.3.028-2.844.028-4.3.028v8.332c.181,0,5.838-.007,8.482.008a.879.879,0,0,0,.808-.409c.976-1.349,1.975-2.681,2.967-4.019.11-.149.23-.291.411-.519v6.57H-.018a9.567,9.567,0,0,1,.965-1.055A4.3,4.3,0,0,0,2.437,16.7c-.106-4.446-.043-8.9-.029-13.343a1.514,1.514,0,0,0-.445-1.187C1.3,1.5.694.784-.014,0" transform="translate(0.018)" fill="#fff"/>
      </g>
      <g id="Group_34" data-name="Group 34" transform="translate(52.263 0.005)">
        <path id="Path_87" data-name="Path 87" d="M-69.756-.124V6.415l-1.223-1.428a9.9,9.9,0,0,0-6.45-3.6,10.766,10.766,0,0,0-2.921.04,4.49,4.49,0,0,0-3.627,4.391v10.41a4.668,4.668,0,0,0,3.785,4.564,8.713,8.713,0,0,0,4.417-.347.614.614,0,0,0,.329-.459q.032-3.349,0-6.7a1.083,1.083,0,0,0-.267-.627c-.664-.778-1.355-1.534-2.1-2.367h8.613c.011.168.025,5.409.04,7.866a.927.927,0,0,1-.373.784,13.681,13.681,0,0,1-8.926,3.314,13.929,13.929,0,0,1-5.661-.828A11.107,11.107,0,0,1-90.94,9.717,11.231,11.231,0,0,1-81.758.072a14.9,14.9,0,0,1,9.327,1.286.738.738,0,0,0,.95-.12c.532-.455,1.1-.871,1.725-1.363" transform="translate(91.016 0.162)" fill="#fff"/>
      </g>
      <g id="Group_35" data-name="Group 35" transform="translate(147.78 0.452)">
        <path id="Path_88" data-name="Path 88" d="M-63.006-70.836H-74.04a3.446,3.446,0,0,1,.228-.33c.6-.681,1.226-1.346,1.807-2.046a1.249,1.249,0,0,0,.271-.726q.033-2.73,0-5.46a1.385,1.385,0,0,0-.245-.747q-3.325-4.617-6.684-9.209a4.481,4.481,0,0,0-.76-.758c-.894-.748-1.8-1.481-2.787-2.289h10.746c-.084.116-.138.2-.2.271a1.943,1.943,0,0,0-.07,2.633c1.556,2.241,4.887,7.023,5.024,7.209.12-.141,4.137-5.392,6.062-7.9a.817.817,0,0,0,.149-.89c-.166-.427-.271-.878-.412-1.352h5.376c-.743.536-1.38.983-2,1.45a3.26,3.26,0,0,0-.631.594q-3.506,4.547-6.986,9.114a1.491,1.491,0,0,0-.282.831q-.034,3.245,0,6.49a1.223,1.223,0,0,0,.28.719c.667.781,1.369,1.532,2.146,2.391" transform="translate(82.209 92.425)" fill="#fff"/>
      </g>
      <g id="Group_36" data-name="Group 36" transform="translate(124.995 0)">
        <path id="Path_89" data-name="Path 89" d="M-69.562-73.4c-.616-.511-1.171-.944-1.691-1.415a.6.6,0,0,0-.8-.081,13.907,13.907,0,0,1-12.135.514,10.9,10.9,0,0,1-6.457-11.7,11.226,11.226,0,0,1,9.45-9.5,14.7,14.7,0,0,1,9.065,1.368.645.645,0,0,0,.823-.093,21.8,21.8,0,0,1,1.762-1.284v6.376c-.179-.206-.313-.342-.428-.493a11.669,11.669,0,0,0-5.175-4.019,9.46,9.46,0,0,0-5.016-.45,4.572,4.572,0,0,0-3.552,4.315q0,5.255,0,10.51A4.615,4.615,0,0,0-79.751-74.8a9.776,9.776,0,0,0,8.638-3.177c.538-.55,1-1.177,1.551-1.835Z" transform="translate(90.763 95.766)" fill="#fff"/>
      </g>
    </g>
  </g>
</svg>
